<svg width="1080" height="1080" viewBox="0 0 1080 1080" fill="none" xmlns="http://www.w3.org/2000/svg">
<g clip-path="url(#clip0_1_2)">
<path d="M1080 0H0V1080H1080V0Z" fill="white"/>
<path d="M662.68 215.13H436.48V227.56H662.68V215.13Z" fill="#008236"/>
<path d="M662.68 356.78H436.48V369.21H662.68V356.78Z" fill="#008236"/>
<path d="M399.7 249.9V476.1H412.13V249.9H399.7Z" fill="#008236"/>
<path d="M543.37 249.7V475.9H555.8V249.7H543.37Z" fill="#008236"/>
<path d="M573.35 177.49H525.81C515.797 177.49 507.68 185.607 507.68 195.62V247.08C507.68 257.093 515.797 265.21 525.81 265.21H573.35C583.363 265.21 591.48 257.093 591.48 247.08V195.62C591.48 185.607 583.363 177.49 573.35 177.49Z" fill="#008236"/>
<path d="M710.58 177.49H663.04C653.027 177.49 644.91 185.607 644.91 195.62V247.08C644.91 257.093 653.027 265.21 663.04 265.21H710.58C720.593 265.21 728.71 257.093 728.71 247.08V195.62C728.71 185.607 720.593 177.49 710.58 177.49Z" fill="#008236"/>
<path d="M429.54 318.95H382C371.987 318.95 363.87 327.067 363.87 337.08V388.54C363.87 398.553 371.987 406.67 382 406.67H429.54C439.553 406.67 447.67 398.553 447.67 388.54V337.08C447.67 327.067 439.553 318.95 429.54 318.95Z" fill="#008236"/>
<path d="M573.35 318.95H525.81C515.797 318.95 507.68 327.067 507.68 337.08V388.54C507.68 398.553 515.797 406.67 525.81 406.67H573.35C583.363 406.67 591.48 398.553 591.48 388.54V337.08C591.48 327.067 583.363 318.95 573.35 318.95Z" fill="#008236"/>
<path d="M710.58 318.95H663.04C653.027 318.95 644.91 327.067 644.91 337.08V388.54C644.91 398.553 653.027 406.67 663.04 406.67H710.58C720.593 406.67 728.71 398.553 728.71 388.54V337.08C728.71 327.067 720.593 318.95 710.58 318.95Z" fill="#008236"/>
<path d="M429.54 460.59H382C371.987 460.59 363.87 468.707 363.87 478.72V530.18C363.87 540.193 371.987 548.31 382 548.31H429.54C439.553 548.31 447.67 540.193 447.67 530.18V478.72C447.67 468.707 439.553 460.59 429.54 460.59Z" fill="#008236"/>
<path d="M573.35 460.59H525.81C515.797 460.59 507.68 468.707 507.68 478.72V530.18C507.68 540.193 515.797 548.31 525.81 548.31H573.35C583.363 548.31 591.48 540.193 591.48 530.18V478.72C591.48 468.707 583.363 460.59 573.35 460.59Z" fill="#008236"/>
<path d="M405.78 268.84C432.102 268.84 453.44 247.502 453.44 221.18C453.44 194.858 432.102 173.52 405.78 173.52C379.458 173.52 358.12 194.858 358.12 221.18C358.12 247.502 379.458 268.84 405.78 268.84Z" fill="#C9111B"/>
<path d="M371.495 632.31H359.428C358.714 628.839 357.465 625.79 355.681 623.162C353.93 620.535 351.789 618.329 349.258 616.545C346.761 614.728 343.987 613.366 340.938 612.458C337.889 611.549 334.71 611.095 331.401 611.095C325.367 611.095 319.902 612.62 315.003 615.669C310.138 618.718 306.261 623.211 303.374 629.147C300.52 635.083 299.092 642.366 299.092 650.995C299.092 659.623 300.52 666.906 303.374 672.842C306.261 678.778 310.138 683.271 315.003 686.32C319.902 689.369 325.367 690.894 331.401 690.894C334.71 690.894 337.889 690.44 340.938 689.531C343.987 688.623 346.761 687.277 349.258 685.493C351.789 683.676 353.93 681.454 355.681 678.827C357.465 676.167 358.714 673.118 359.428 669.679H371.495C370.587 674.772 368.932 679.33 366.532 683.352C364.131 687.374 361.147 690.797 357.579 693.619C354.011 696.408 350.004 698.533 345.56 699.993C341.149 701.453 336.429 702.182 331.401 702.182C322.902 702.182 315.344 700.106 308.727 695.954C302.109 691.802 296.903 685.898 293.107 678.243C289.312 670.587 287.414 661.505 287.414 650.995C287.414 640.484 289.312 631.402 293.107 623.746C296.903 616.091 302.109 610.187 308.727 606.035C315.344 601.883 322.902 599.807 331.401 599.807C336.429 599.807 341.149 600.537 345.56 601.996C350.004 603.456 354.011 605.597 357.579 608.419C361.147 611.209 364.131 614.615 366.532 618.637C368.932 622.627 370.587 627.185 371.495 632.31ZM411.431 702.572C406.695 702.572 402.397 701.68 398.536 699.896C394.676 698.079 391.611 695.468 389.34 692.062C387.069 688.623 385.934 684.471 385.934 679.605C385.934 675.323 386.778 671.852 388.464 669.193C390.151 666.5 392.406 664.392 395.228 662.867C398.05 661.342 401.164 660.207 404.57 659.461C408.008 658.682 411.463 658.066 414.934 657.612C419.475 657.028 423.157 656.59 425.979 656.298C428.834 655.974 430.91 655.439 432.208 654.693C433.538 653.946 434.203 652.649 434.203 650.8V650.411C434.203 645.61 432.889 641.879 430.261 639.219C427.666 636.559 423.725 635.229 418.437 635.229C412.955 635.229 408.657 636.43 405.543 638.83C402.429 641.231 400.239 643.793 398.974 646.518L388.075 642.625C390.021 638.084 392.616 634.548 395.86 632.018C399.137 629.455 402.705 627.671 406.565 626.666C410.458 625.628 414.285 625.109 418.048 625.109C420.449 625.109 423.206 625.401 426.32 625.985C429.467 626.536 432.499 627.688 435.419 629.439C438.371 631.191 440.82 633.835 442.766 637.37C444.713 640.906 445.686 645.642 445.686 651.578V700.82H434.203V690.699H433.619C432.84 692.321 431.543 694.057 429.726 695.906C427.909 697.755 425.493 699.328 422.476 700.625C419.459 701.923 415.777 702.572 411.431 702.572ZM413.182 692.256C417.724 692.256 421.552 691.364 424.666 689.58C427.812 687.796 430.18 685.493 431.77 682.671C433.392 679.849 434.203 676.88 434.203 673.766V663.256C433.716 663.84 432.645 664.375 430.991 664.862C429.369 665.316 427.488 665.722 425.347 666.078C423.238 666.403 421.178 666.695 419.167 666.954C417.189 667.181 415.583 667.376 414.35 667.538C411.366 667.927 408.576 668.56 405.981 669.436C403.418 670.279 401.342 671.561 399.753 673.28C398.196 674.967 397.417 677.27 397.417 680.189C397.417 684.179 398.893 687.196 401.845 689.239C404.83 691.251 408.609 692.256 413.182 692.256ZM466.645 700.82V626.082H477.739V637.76H478.712C480.269 633.77 482.783 630.672 486.254 628.466C489.725 626.228 493.893 625.109 498.759 625.109C503.69 625.109 507.793 626.228 511.069 628.466C514.378 630.672 516.957 633.77 518.806 637.76H519.585C521.498 633.899 524.369 630.834 528.197 628.563C532.025 626.26 536.615 625.109 541.967 625.109C548.649 625.109 554.115 627.201 558.365 631.386C562.614 635.538 564.739 642.009 564.739 650.8V700.82H553.256V650.8C553.256 645.285 551.747 641.344 548.73 638.976C545.714 636.608 542.162 635.424 538.074 635.424C532.819 635.424 528.748 637.014 525.861 640.193C522.974 643.339 521.531 647.329 521.531 652.162V700.82H509.853V649.632C509.853 645.383 508.474 641.96 505.717 639.365C502.96 636.738 499.408 635.424 495.061 635.424C492.077 635.424 489.287 636.219 486.692 637.808C484.129 639.398 482.053 641.604 480.464 644.426C478.907 647.215 478.128 650.443 478.128 654.109V700.82H466.645ZM585.735 728.847V626.082H596.829V637.954H598.191C599.034 636.657 600.202 635.002 601.694 632.991C603.219 630.948 605.392 629.131 608.215 627.542C611.069 625.92 614.929 625.109 619.795 625.109C626.088 625.109 631.635 626.682 636.436 629.828C641.237 632.975 644.983 637.435 647.676 643.209C650.368 648.983 651.714 655.795 651.714 663.646C651.714 671.561 650.368 678.421 647.676 684.228C644.983 690.002 641.253 694.478 636.485 697.657C631.716 700.804 626.218 702.377 619.99 702.377C615.189 702.377 611.345 701.582 608.458 699.993C605.571 698.371 603.349 696.538 601.792 694.495C600.235 692.418 599.034 690.699 598.191 689.337H597.218V728.847H585.735ZM597.023 663.451C597.023 669.095 597.85 674.075 599.505 678.389C601.159 682.671 603.576 686.028 606.755 688.461C609.934 690.861 613.826 692.062 618.433 692.062C623.234 692.062 627.24 690.797 630.451 688.266C633.695 685.704 636.128 682.265 637.75 677.951C639.404 673.604 640.231 668.771 640.231 663.451C640.231 658.196 639.42 653.46 637.798 649.243C636.209 644.993 633.792 641.636 630.548 639.171C627.337 636.673 623.298 635.424 618.433 635.424C613.761 635.424 609.836 636.608 606.657 638.976C603.478 641.312 601.078 644.588 599.456 648.805C597.834 652.99 597.023 657.871 597.023 663.451ZM716.332 670.263V626.082H727.815V700.82H716.332V688.169H715.553C713.802 691.964 711.077 695.192 707.379 697.852C703.681 700.479 699.01 701.793 693.365 701.793C688.694 701.793 684.542 700.771 680.909 698.728C677.276 696.652 674.421 693.538 672.345 689.385C670.269 685.201 669.231 679.93 669.231 673.572V626.082H680.714V672.793C680.714 678.243 682.239 682.59 685.288 685.833C688.37 689.077 692.295 690.699 697.063 690.699C699.918 690.699 702.821 689.969 705.773 688.51C708.757 687.05 711.255 684.812 713.266 681.795C715.31 678.778 716.332 674.934 716.332 670.263ZM801.787 642.82L791.471 645.74C790.823 644.02 789.866 642.35 788.601 640.728C787.368 639.073 785.681 637.711 783.54 636.641C781.399 635.57 778.658 635.035 775.317 635.035C770.743 635.035 766.932 636.089 763.883 638.198C760.866 640.274 759.357 642.917 759.357 646.129C759.357 648.983 760.395 651.238 762.471 652.892C764.548 654.547 767.791 655.925 772.203 657.028L783.297 659.753C789.979 661.375 794.959 663.856 798.235 667.198C801.511 670.506 803.149 674.772 803.149 679.995C803.149 684.276 801.917 688.104 799.451 691.478C797.018 694.851 793.612 697.511 789.233 699.458C784.854 701.404 779.761 702.377 773.955 702.377C766.332 702.377 760.022 700.723 755.027 697.414C750.031 694.105 746.869 689.272 745.539 682.914L756.438 680.189C757.476 684.212 759.438 687.228 762.326 689.239C765.245 691.251 769.056 692.256 773.76 692.256C779.112 692.256 783.362 691.121 786.508 688.85C789.687 686.547 791.277 683.79 791.277 680.578C791.277 677.983 790.369 675.81 788.552 674.058C786.735 672.274 783.946 670.944 780.183 670.068L767.727 667.149C760.882 665.527 755.854 663.013 752.643 659.607C749.464 656.168 747.874 651.87 747.874 646.713C747.874 642.496 749.058 638.765 751.426 635.521C753.827 632.278 757.087 629.731 761.206 627.882C765.359 626.033 770.062 625.109 775.317 625.109C782.713 625.109 788.52 626.731 792.737 629.974C796.986 633.218 800.003 637.5 801.787 642.82Z" fill="black"/>
<path d="M334.547 747.609C329.864 747.609 325.671 748.457 321.969 750.152C318.312 751.847 315.212 754.3 312.669 757.511C310.127 760.678 308.187 764.536 306.849 769.086C305.511 773.591 304.842 778.675 304.842 784.34C304.842 791.922 305.912 798.457 308.053 803.943C310.194 809.384 313.45 813.577 317.821 816.521C322.192 819.42 327.723 820.87 334.413 820.87C338.561 820.87 342.598 820.468 346.523 819.665C350.448 818.862 354.507 817.77 358.699 816.387V830.035C354.73 831.597 350.716 832.734 346.657 833.448C342.598 834.161 337.915 834.518 332.607 834.518C322.616 834.518 314.32 832.444 307.718 828.296C301.162 824.148 296.255 818.305 292.999 810.767C289.788 803.229 288.182 794.398 288.182 784.273C288.182 776.869 289.208 770.089 291.26 763.934C293.312 757.779 296.3 752.471 300.225 748.011C304.15 743.506 308.99 740.049 314.743 737.641C320.542 735.187 327.165 733.961 334.614 733.961C339.52 733.961 344.337 734.518 349.065 735.634C353.838 736.704 358.253 738.243 362.312 740.25L356.692 753.497C353.303 751.891 349.757 750.509 346.055 749.349C342.353 748.189 338.517 747.609 334.547 747.609ZM443.668 795.981C443.668 802.136 442.865 807.6 441.259 812.373C439.654 817.145 437.312 821.182 434.234 824.482C431.157 827.738 427.455 830.236 423.128 831.976C418.802 833.671 413.918 834.518 408.476 834.518C403.392 834.518 398.731 833.671 394.493 831.976C390.256 830.236 386.576 827.738 383.454 824.482C380.376 821.182 377.99 817.145 376.295 812.373C374.6 807.6 373.753 802.136 373.753 795.981C373.753 787.819 375.158 780.905 377.968 775.241C380.822 769.532 384.881 765.183 390.144 762.195C395.408 759.206 401.674 757.712 408.945 757.712C415.769 757.712 421.79 759.206 427.009 762.195C432.227 765.183 436.308 769.532 439.252 775.241C442.196 780.95 443.668 787.863 443.668 795.981ZM389.944 795.981C389.944 801.378 390.591 805.995 391.884 809.83C393.222 813.666 395.274 816.61 398.039 818.662C400.805 820.669 404.373 821.672 408.744 821.672C413.115 821.672 416.683 820.669 419.449 818.662C422.214 816.61 424.243 813.666 425.537 809.83C426.83 805.995 427.477 801.378 427.477 795.981C427.477 790.584 426.83 786.012 425.537 782.266C424.243 778.475 422.214 775.598 419.449 773.635C416.683 771.628 413.093 770.624 408.677 770.624C402.165 770.624 397.415 772.81 394.426 777.181C391.438 781.552 389.944 787.819 389.944 795.981ZM500.336 757.712C508.677 757.712 515.166 759.875 519.805 764.202C524.488 768.484 526.83 775.375 526.83 784.875V833.18H511.107V787.819C511.107 782.065 509.925 777.761 507.562 774.906C505.198 772.007 501.54 770.558 496.589 770.558C489.408 770.558 484.413 772.765 481.603 777.181C478.837 781.597 477.455 787.997 477.455 796.383V833.18H461.732V759.117H473.976L476.183 769.153H477.053C478.659 766.566 480.644 764.447 483.008 762.797C485.416 761.102 488.092 759.831 491.036 758.983C494.025 758.136 497.124 757.712 500.336 757.712ZM587.445 757.712C595.786 757.712 602.276 759.875 606.914 764.202C611.598 768.484 613.939 775.375 613.939 784.875V833.18H598.217V787.819C598.217 782.065 597.035 777.761 594.671 774.906C592.307 772.007 588.65 770.558 583.699 770.558C576.518 770.558 571.522 772.765 568.712 777.181C565.947 781.597 564.564 787.997 564.564 796.383V833.18H548.841V759.117H561.085L563.293 769.153H564.163C565.768 766.566 567.753 764.447 570.117 762.797C572.526 761.102 575.202 759.831 578.146 758.983C581.134 758.136 584.234 757.712 587.445 757.712ZM665.456 757.712C672.057 757.712 677.721 759.072 682.449 761.793C687.177 764.514 690.812 768.372 693.355 773.368C695.897 778.363 697.168 784.34 697.168 791.298V799.728H647.726C647.904 806.909 649.822 812.44 653.48 816.32C657.182 820.201 662.356 822.141 669.002 822.141C673.73 822.141 677.967 821.695 681.713 820.803C685.505 819.866 689.407 818.506 693.422 816.722V829.5C689.72 831.24 685.951 832.511 682.115 833.314C678.279 834.117 673.685 834.518 668.333 834.518C661.062 834.518 654.662 833.113 649.131 830.303C643.645 827.449 639.341 823.211 636.219 817.591C633.141 811.971 631.602 804.991 631.602 796.65C631.602 788.354 633.007 781.307 635.817 775.508C638.627 769.71 642.574 765.294 647.659 762.261C652.744 759.228 658.676 757.712 665.456 757.712ZM665.456 769.554C660.505 769.554 656.491 771.16 653.413 774.371C650.38 777.583 648.596 782.288 648.061 788.488H681.78C681.736 784.786 681.111 781.508 679.907 778.653C678.747 775.798 676.963 773.568 674.555 771.963C672.191 770.357 669.158 769.554 665.456 769.554ZM744.737 834.518C737.735 834.518 731.669 833.158 726.539 830.437C721.41 827.716 717.463 823.546 714.697 817.926C711.932 812.306 710.549 805.169 710.549 796.516C710.549 787.507 712.066 780.147 715.099 774.438C718.132 768.729 722.324 764.514 727.677 761.793C733.074 759.072 739.251 757.712 746.209 757.712C750.625 757.712 754.617 758.158 758.185 759.05C761.798 759.897 764.853 760.946 767.351 762.195L762.668 774.773C759.947 773.657 757.159 772.721 754.305 771.963C751.45 771.204 748.707 770.825 746.075 770.825C741.749 770.825 738.136 771.784 735.237 773.702C732.382 775.62 730.241 778.475 728.814 782.266C727.431 786.057 726.74 790.763 726.74 796.383C726.74 801.824 727.454 806.418 728.881 810.165C730.308 813.867 732.427 816.677 735.237 818.595C738.047 820.468 741.504 821.405 745.607 821.405C749.666 821.405 753.301 820.914 756.512 819.933C759.724 818.952 762.757 817.68 765.611 816.119V829.768C762.801 831.374 759.791 832.556 756.579 833.314C753.368 834.117 749.421 834.518 744.737 834.518ZM810.571 821.806C812.623 821.806 814.652 821.628 816.659 821.271C818.667 820.87 820.495 820.401 822.146 819.866V831.775C820.406 832.533 818.154 833.18 815.388 833.715C812.623 834.25 809.746 834.518 806.758 834.518C802.565 834.518 798.796 833.827 795.451 832.444C792.106 831.017 789.452 828.586 787.489 825.151C785.527 821.717 784.545 816.967 784.545 810.901V771.093H774.443V764.068L785.281 758.515L790.433 742.658H800.335V759.117H821.543V771.093H800.335V810.7C800.335 814.447 801.271 817.234 803.145 819.063C805.018 820.892 807.493 821.806 810.571 821.806Z" fill="#008236"/>
<path d="M489.802 869.613V906.74H485.306V869.613H489.802ZM498.816 906.74V869.613H521.078V873.601H503.312V886.146H519.41V890.134H503.312V906.74H498.816ZM558.654 881.215H554.158C553.892 879.922 553.427 878.786 552.762 877.807C552.11 876.828 551.312 876.006 550.369 875.341C549.439 874.665 548.405 874.157 547.269 873.819C546.133 873.48 544.949 873.311 543.716 873.311C541.468 873.311 539.432 873.879 537.607 875.015C535.794 876.151 534.35 877.825 533.274 880.037C532.21 882.248 531.679 884.962 531.679 888.176C531.679 891.391 532.21 894.104 533.274 896.316C534.35 898.528 535.794 900.202 537.607 901.338C539.432 902.474 541.468 903.042 543.716 903.042C544.949 903.042 546.133 902.873 547.269 902.534C548.405 902.196 549.439 901.694 550.369 901.029C551.312 900.353 552.11 899.525 552.762 898.546C553.427 897.555 553.892 896.419 554.158 895.138H558.654C558.316 897.035 557.699 898.733 556.805 900.232C555.911 901.73 554.799 903.006 553.469 904.057C552.14 905.096 550.647 905.888 548.991 906.432C547.348 906.976 545.589 907.248 543.716 907.248C540.55 907.248 537.734 906.474 535.268 904.927C532.803 903.38 530.863 901.181 529.449 898.328C528.035 895.476 527.328 892.092 527.328 888.176C527.328 884.261 528.035 880.877 529.449 878.024C530.863 875.172 532.803 872.973 535.268 871.426C537.734 869.879 540.55 869.105 543.716 869.105C545.589 869.105 547.348 869.377 548.991 869.921C550.647 870.465 552.14 871.262 553.469 872.314C554.799 873.353 555.911 874.622 556.805 876.121C557.699 877.607 558.316 879.305 558.654 881.215ZM565.919 906.74V869.613H588.326V873.601H570.415V886.146H587.166V890.134H570.415V902.752H588.616V906.74H565.919Z" fill="black"/>
<path d="M452.38 887.36H290.75C289.309 887.36 288.14 888.529 288.14 889.97V890.09C288.14 891.531 289.309 892.7 290.75 892.7H452.38C453.821 892.7 454.99 891.531 454.99 890.09V889.97C454.99 888.529 453.821 887.36 452.38 887.36Z" fill="#008236"/>
<path d="M814.39 887.36H652.76C651.319 887.36 650.15 888.529 650.15 889.97V890.09C650.15 891.531 651.319 892.7 652.76 892.7H814.39C815.831 892.7 817 891.531 817 890.09V889.97C817 888.529 815.831 887.36 814.39 887.36Z" fill="#008236"/>
</g>
<defs>
<clipPath id="clip0_1_2">
<rect width="1080" height="1080" fill="white"/>
</clipPath>
</defs>
</svg>
