<svg width="743" height="772" viewBox="0 0 743 772" fill="none" xmlns="http://www.w3.org/2000/svg">
<path d="M188.493 1.54198C308.603 -3.07802 431.173 4.47198 551.533 1.23198C608.893 3.20198 659.323 15.272 698.783 59.312C733.013 97.522 738.533 136.152 740.533 185.732C745.813 317.102 738.553 450.762 741.543 582.462C739.663 640.242 728.703 687.192 683.903 726.442C648.223 757.702 603.653 767.682 557.103 769.672C434.823 766.242 310.173 774.102 188.173 769.672C131.063 767.602 80.3732 753.912 41.9132 709.672C9.23315 672.092 3.83316 633.412 1.92316 585.212C-3.20684 455.382 3.88315 323.262 0.963154 193.082C2.49315 141.832 9.56316 96.922 45.1232 57.922C84.0232 15.252 132.373 3.69198 188.493 1.53198V1.54198ZM252.603 100.022C166.643 104.382 101.633 158.782 90.3232 245.272C91.0732 322.612 85.7632 403.102 89.2332 480.252C90.5832 510.172 98.9831 535.372 116.883 559.292C115.643 582.122 115.793 605.062 115.323 627.982C115.093 639.072 112.993 651.182 114.333 662.342C115.383 671.052 125.943 677.672 134.133 673.742C165.563 657.882 195.073 635.202 228.283 623.882L511.533 623.762C586.593 617.832 644.983 553.442 653.223 480.222C652.333 406.832 657.583 330.382 654.203 257.202C650.213 170.862 583.353 98.722 494.853 99.722C414.833 102.522 332.333 95.992 252.593 100.032L252.603 100.022Z" fill="#008236"/>
<path d="M252.603 100.022C332.343 95.982 414.833 102.512 494.863 99.712C583.353 98.702 650.223 170.842 654.213 257.192C657.593 330.372 652.343 406.822 653.233 480.212C644.993 553.432 586.613 617.822 511.543 623.752L228.293 623.872C195.083 635.192 165.573 657.872 134.143 673.732C125.953 677.672 115.383 671.042 114.343 662.332C113.003 651.172 115.103 639.062 115.333 627.972C115.813 605.052 115.663 582.122 116.893 559.282C98.9932 535.362 90.5832 510.162 89.2432 480.242C85.7632 403.092 91.0832 322.602 90.3332 245.262C101.643 158.772 166.653 104.372 252.613 100.012L252.603 100.022Z" fill="white"/>
<path d="M490.233 227.312H265.413V239.672H490.233V227.312Z" fill="#008236"/>
<path d="M490.233 368.102H265.413V380.462H490.233V368.102Z" fill="#008236"/>
<path d="M228.863 261.862V486.682H241.223V261.862H228.863Z" fill="#008236"/>
<path d="M371.643 261.682V486.502H384.003V261.682H371.643Z" fill="#008236"/>
<path d="M401.343 189.902H354.313C344.3 189.902 336.183 198.019 336.183 208.032V258.952C336.183 268.965 344.3 277.082 354.313 277.082H401.343C411.356 277.082 419.473 268.965 419.473 258.952V208.032C419.473 198.019 411.356 189.902 401.343 189.902Z" fill="#008236"/>
<path d="M537.743 189.902H490.713C480.7 189.902 472.583 198.019 472.583 208.032V258.952C472.583 268.965 480.7 277.082 490.713 277.082H537.743C547.756 277.082 555.873 268.965 555.873 258.952V208.032C555.873 198.019 547.756 189.902 537.743 189.902Z" fill="#008236"/>
<path d="M258.413 330.492H211.383C201.37 330.492 193.253 338.609 193.253 348.622V399.542C193.253 409.555 201.37 417.672 211.383 417.672H258.413C268.426 417.672 276.543 409.555 276.543 399.542V348.622C276.543 338.609 268.426 330.492 258.413 330.492Z" fill="#008236"/>
<path d="M401.343 330.492H354.313C344.3 330.492 336.183 338.609 336.183 348.622V399.542C336.183 409.555 344.3 417.672 354.313 417.672H401.343C411.356 417.672 419.473 409.555 419.473 399.542V348.622C419.473 338.609 411.356 330.492 401.343 330.492Z" fill="#008236"/>
<path d="M537.743 330.492H490.713C480.7 330.492 472.583 338.609 472.583 348.622V399.542C472.583 409.555 480.7 417.672 490.713 417.672H537.743C547.756 417.672 555.873 409.555 555.873 399.542V348.622C555.873 338.609 547.756 330.492 537.743 330.492Z" fill="#008236"/>
<path d="M258.413 471.282H211.383C201.37 471.282 193.253 479.399 193.253 489.412V540.332C193.253 550.345 201.37 558.462 211.383 558.462H258.413C268.426 558.462 276.543 550.345 276.543 540.332V489.412C276.543 479.399 268.426 471.282 258.413 471.282Z" fill="#008236"/>
<path d="M401.343 471.282H354.313C344.3 471.282 336.183 479.399 336.183 489.412V540.332C336.183 550.345 344.3 558.462 354.313 558.462H401.343C411.356 558.462 419.473 550.345 419.473 540.332V489.412C419.473 479.399 411.356 471.282 401.343 471.282Z" fill="#008236"/>
<path d="M234.893 280.692C261.055 280.692 282.263 259.484 282.263 233.322C282.263 207.16 261.055 185.952 234.893 185.952C208.731 185.952 187.523 207.16 187.523 233.322C187.523 259.484 208.731 280.692 234.893 280.692Z" fill="#C9111B"/>
</svg>
